<svg width="149" height="29" viewBox="0 0 149 29" fill="none" xmlns="http://www.w3.org/2000/svg">
<path d="M0 28.9024V0H11.5651V4.74824H2.89128V13.4602H8.88035V18.1672H2.89128V28.9024H0Z" fill="black"/>
<path d="M35.9797 28.9024V0H38.871V24.1541H47.0285V28.9024H35.9797Z" fill="black"/>
<path d="M105.107 18.1672L101.08 28.9024H97.5693L103.042 14.0383L98.1889 0H101.7L105.107 9.90938H105.211L108.618 0H112.129L107.276 14.0383L112.749 28.9024H109.238L105.211 18.1672H105.107Z" fill="black"/>
<path d="M141.772 14.0383L145.902 0H149L143.114 19.8188V28.9024H140.223V19.8188L134.337 0H137.435L141.565 14.0383H141.772Z" fill="black"/>
<rect x="78.1793" y="5.77539" width="14.4486" height="5.77491" transform="rotate(-180 78.1793 5.77539)" fill="black"/>
<rect x="78.1793" y="17.3877" width="14.4486" height="5.77491" transform="rotate(-180 78.1793 17.3877)" fill="black"/>
<rect x="78.1793" y="29" width="14.4486" height="5.77491" transform="rotate(-180 78.1793 29)" fill="black"/>
</svg>
