<svg width="52" height="88" viewBox="0 0 52 88" fill="none" xmlns="http://www.w3.org/2000/svg">
<path d="M38.9393 87.0606C39.5251 87.6464 40.4749 87.6464 41.0607 87.0606L50.6066 77.5147C51.1924 76.9289 51.1924 75.9792 50.6066 75.3934C50.0208 74.8076 49.0711 74.8076 48.4853 75.3934L40 83.8787L31.5147 75.3934C30.9289 74.8076 29.9792 74.8076 29.3934 75.3934C28.8076 75.9792 28.8076 76.9289 29.3934 77.5147L38.9393 87.0606ZM38.5 55.2857L38.5 86L41.5 86L41.5 55.2857L38.5 55.2857Z" fill="black"/>
<rect x="31.5" y="1.5" width="17" height="20.0357" rx="8.5" stroke="black" stroke-width="3"/>
<ellipse cx="40" cy="14.5893" rx="3" ry="2.30357" fill="black"/>
</svg>
