<svg width="924" height="193" viewBox="0 0 924 193" fill="none" xmlns="http://www.w3.org/2000/svg">
<path d="M0 89.6004V0.000411987H71.68V14.7204H17.92V41.7284H55.04V56.3204H17.92V89.6004H0Z" fill="black"/>
<path d="M223 89.6004V0.000411987H240.92V74.8804H291.48V89.6004H223Z" fill="black"/>
<path d="M651.45 56.3204L626.49 89.6004H604.73L638.65 43.5204L608.57 0.000411987H630.33L651.45 30.7204H652.09L673.21 0.000411987H694.97L664.89 43.5204L698.81 89.6004H677.05L652.09 56.3204H651.45Z" fill="black"/>
<path d="M878.695 43.5204L904.295 0.000411987H923.495L887.015 61.4404V89.6004H869.095V61.4404L832.615 0.000411987H851.815L877.415 43.5204H878.695Z" fill="black"/>
<rect x="484.552" y="17.9028" width="89.5517" height="17.9028" transform="rotate(-180 484.552 17.9028)" fill="black"/>
<rect x="484.552" y="53.9028" width="89.5517" height="17.9028" transform="rotate(-180 484.552 53.9028)" fill="black"/>
<rect x="484.552" y="89.9028" width="89.5517" height="17.9028" transform="rotate(-180 484.552 89.9028)" fill="black"/>
<path d="M339.424 177.64C335.456 177.64 332.021 176.765 329.12 175.016C326.219 173.267 323.957 170.792 322.336 167.592C320.715 164.349 319.904 160.445 319.904 155.88C319.904 151.4 320.736 147.539 322.4 144.296C324.107 141.053 326.496 138.557 329.568 136.808C332.683 135.016 336.245 134.12 340.256 134.12C344.651 134.12 348.192 134.931 350.88 136.552C353.611 138.173 355.787 140.691 357.408 144.104L351.072 147.112C350.261 144.765 348.917 143.016 347.04 141.864C345.205 140.669 342.965 140.072 340.32 140.072C337.675 140.072 335.349 140.691 333.344 141.928C331.381 143.165 329.845 144.979 328.736 147.368C327.627 149.715 327.072 152.552 327.072 155.88C327.072 159.251 327.563 162.131 328.544 164.52C329.525 166.867 330.997 168.659 332.96 169.896C334.965 171.133 337.419 171.752 340.32 171.752C341.899 171.752 343.371 171.56 344.736 171.176C346.101 170.749 347.296 170.152 348.32 169.384C349.344 168.573 350.133 167.571 350.688 166.376C351.285 165.139 351.584 163.688 351.584 162.024V160.808H339.296V155.24H357.664V177H352.544L352.16 168.488L353.44 169.128C352.416 171.816 350.709 173.907 348.32 175.4C345.973 176.893 343.008 177.64 339.424 177.64ZM385.801 134.76C390.323 134.76 393.907 135.891 396.553 138.152C399.241 140.413 400.585 143.464 400.585 147.304C400.585 151.272 399.241 154.344 396.553 156.52C393.907 158.653 390.323 159.72 385.801 159.72L385.161 160.104H375.369V177H368.585V134.76H385.801ZM385.289 154.408C388.062 154.408 390.11 153.853 391.433 152.744C392.798 151.592 393.481 149.843 393.481 147.496C393.481 145.192 392.798 143.464 391.433 142.312C390.11 141.16 388.062 140.584 385.289 140.584H375.369V154.408H385.289ZM389.321 155.816L403.081 177H395.208L383.433 158.504L389.321 155.816ZM428.746 134.12C432.842 134.12 436.383 134.995 439.37 136.744C442.356 138.493 444.66 140.989 446.282 144.232C447.903 147.475 448.714 151.357 448.714 155.88C448.714 160.403 447.903 164.285 446.282 167.528C444.66 170.771 442.356 173.267 439.37 175.016C436.383 176.765 432.842 177.64 428.746 177.64C424.692 177.64 421.172 176.765 418.186 175.016C415.199 173.267 412.895 170.771 411.274 167.528C409.652 164.285 408.842 160.403 408.842 155.88C408.842 151.357 409.652 147.475 411.274 144.232C412.895 140.989 415.199 138.493 418.186 136.744C421.172 134.995 424.692 134.12 428.746 134.12ZM428.746 140.072C426.1 140.072 423.818 140.691 421.898 141.928C420.02 143.165 418.57 144.957 417.546 147.304C416.522 149.651 416.01 152.509 416.01 155.88C416.01 159.208 416.522 162.067 417.546 164.456C418.57 166.803 420.02 168.595 421.898 169.832C423.818 171.069 426.1 171.688 428.746 171.688C431.434 171.688 433.716 171.069 435.594 169.832C437.514 168.595 438.986 166.803 440.01 164.456C441.034 162.067 441.546 159.208 441.546 155.88C441.546 152.509 441.034 149.651 440.01 147.304C438.986 144.957 437.514 143.165 435.594 141.928C433.716 140.691 431.434 140.072 428.746 140.072ZM492.561 134.76V160.808C492.561 166.397 491.089 170.6 488.145 173.416C485.201 176.232 480.913 177.64 475.281 177.64C469.734 177.64 465.468 176.232 462.481 173.416C459.537 170.6 458.065 166.397 458.065 160.808V134.76H464.913V159.976C464.913 163.944 465.766 166.888 467.473 168.808C469.18 170.728 471.782 171.688 475.281 171.688C478.822 171.688 481.446 170.728 483.153 168.808C484.86 166.888 485.713 163.944 485.713 159.976V134.76H492.561ZM520.528 134.76C523.557 134.76 526.16 135.293 528.336 136.36C530.555 137.427 532.283 138.941 533.52 140.904C534.757 142.867 535.376 145.235 535.376 148.008C535.376 150.739 534.757 153.107 533.52 155.112C532.283 157.075 530.555 158.589 528.336 159.656C526.16 160.723 523.557 161.256 520.528 161.256H511.12V177H504.272V134.76H520.528ZM519.44 155.368C522.469 155.368 524.688 154.749 526.096 153.512C527.547 152.232 528.272 150.397 528.272 148.008C528.272 145.576 527.547 143.741 526.096 142.504C524.688 141.224 522.469 140.584 519.44 140.584H511.12V155.368H519.44Z" fill="black"/>
</svg>
