<svg width="1552" height="272" viewBox="0 0 1552 272" fill="none" xmlns="http://www.w3.org/2000/svg">
<path d="M339.2 3.99999V268H258V176.4L259.2 87.6H258L206.8 268H132.4L82 87.6H80.4L81.6 176.4V268H2.98023e-07V3.99999H130.4L160.8 121.2L172.4 170.4H173.2L184.8 121.2L215.2 3.99999H339.2ZM505.297 -6.67572e-06C533.297 -6.67572e-06 557.297 5.33332 577.297 16C597.297 26.6667 612.63 42.1333 623.297 62.4C633.964 82.6667 639.297 107.2 639.297 136C639.297 164.8 633.964 189.333 623.297 209.6C612.63 229.867 597.297 245.333 577.297 256C557.297 266.667 533.297 272 505.297 272C477.564 272 453.564 266.667 433.297 256C413.297 245.333 397.83 229.867 386.897 209.6C376.23 189.333 370.897 164.8 370.897 136C370.897 107.2 376.23 82.6667 386.897 62.4C397.83 42.1333 413.297 26.6667 433.297 16C453.564 5.33332 477.564 -6.67572e-06 505.297 -6.67572e-06ZM505.297 70C496.23 70 488.764 72.4 482.897 77.2C477.297 81.7333 473.03 88.8 470.097 98.4C467.43 108 466.097 120.533 466.097 136C466.097 151.2 467.43 163.733 470.097 173.6C473.03 183.2 477.297 190.4 482.897 195.2C488.764 199.733 496.23 202 505.297 202C514.364 202 521.697 199.733 527.297 195.2C533.164 190.4 537.43 183.2 540.097 173.6C542.764 163.733 544.097 151.2 544.097 136C544.097 120.533 542.764 108 540.097 98.4C537.43 88.8 533.164 81.7333 527.297 77.2C521.697 72.4 514.364 70 505.297 70ZM670.703 268V3.99999H821.903C855.236 4.26665 880.036 10.2667 896.303 22C912.57 33.4667 920.703 50.9333 920.703 74.4C920.703 90.1333 915.903 103.467 906.303 114.4C896.703 125.333 881.636 132.267 861.103 135.2V135.6C884.036 138 900.836 144.8 911.503 156C922.17 167.2 927.503 181.333 927.503 198.4C927.503 221.6 919.636 239.067 903.903 250.8C888.436 262.267 864.57 268 832.303 268H670.703ZM759.903 207.2H807.503C815.77 207.2 821.903 205.6 825.903 202.4C830.17 198.933 832.303 194 832.303 187.6C832.303 181.467 830.17 176.8 825.903 173.6C821.903 170.4 815.77 168.8 807.503 168.8H759.903V207.2ZM759.903 106.4H801.503C817.503 106.4 825.503 100 825.503 87.2C825.503 74.4 817.503 68 801.503 68H759.903V106.4ZM1045.54 3.99999V268H952.344V3.99999H1045.54ZM1178.75 199.6H1298.35V268H1085.55V3.99999H1178.75V199.6ZM1327.73 268V3.99999H1546.93V72.4H1420.93V105.2H1522.53V168.4H1420.93V199.6H1551.73V268H1327.73Z" fill="#F6F6F6"/>
</svg>
