<svg width="1152" height="264" viewBox="0 0 1152 264" fill="none" xmlns="http://www.w3.org/2000/svg">
<path d="M258.4 -1.04904e-05V68.4H176V264H82.8V68.4H5.66244e-07V-1.04904e-05H258.4ZM286.219 264V-1.04904e-05H505.419V68.4H379.419V101.2H481.019V164.4H379.419V195.6H510.219V264H286.219ZM796.209 264H701.009L689.009 213.6H617.809L605.409 264H512.609L598.209 -1.04904e-05H710.209L796.209 264ZM631.809 155.6H675.409L653.809 64L631.809 155.6ZM1151.59 -1.04904e-05V264H1070.39V172.4L1071.59 83.6H1070.39L1019.19 264H944.791L894.391 83.6H892.791L893.991 172.4V264H812.391V-1.04904e-05H942.791L973.191 117.2L984.791 166.4H985.591L997.191 117.2L1027.59 -1.04904e-05H1151.59Z" fill="#F6F6F6"/>
</svg>
